HIERARCHY
ROOT root
{
	OFFSET	0	13.1	24.9
	CHANNELS 6  Xposition Yposition Zposition Xrotation Yrotation Zrotation
	JOINT spine_1
	{
		OFFSET	0	9.99999	0
		CHANNELS 3  Xrotation Yrotation Zrotation
		JOINT spine_2
		{
			OFFSET	0	112	-10
			CHANNELS 3  Xrotation Yrotation Zrotation
			JOINT spine_3
			{
				OFFSET	0	206.5	19.3
				CHANNELS 3  Xrotation Yrotation Zrotation
				JOINT spine_4
				{
					OFFSET	0	110.4	14.6
					CHANNELS 3  Xrotation Yrotation Zrotation
					JOINT neck_1
					{
						OFFSET	0	71.8	-50.3
						CHANNELS 3  Xrotation Yrotation Zrotation
						JOINT neck_2
						{
							OFFSET	0	86.2	-25.8
							CHANNELS 3  Xrotation Yrotation Zrotation
							JOINT head_ee
							{
								OFFSET	0	179.8	-8.7
								CHANNELS 3  Xrotation Yrotation Zrotation
								End Site
								{
									OFFSET	1	0	0
								}
							}
						}
					}
					JOINT left_clavicle
					{
						OFFSET	-43.2	22.4	-70.8
						CHANNELS 3  Xrotation Yrotation Zrotation
						JOINT left_shoulder
						{
							OFFSET	-93.9	-5.79999	48.7
							CHANNELS 3  Xrotation Yrotation Zrotation
							JOINT left_elbow
							{
								OFFSET	-291.4	-30.8	15.2
								CHANNELS 3  Xrotation Yrotation Zrotation
								JOINT left_lowarm_twist
								{
									OFFSET	-110.7	-3.89999	13.6
									CHANNELS 3  Xrotation Yrotation Zrotation
									JOINT left_hand
									{
										OFFSET	-110.7	-3.89999	13.6
										CHANNELS 3  Xrotation Yrotation Zrotation
										JOINT left_ee
										{
											OFFSET	-80.8	-5.10001	12.1
											CHANNELS 3  Xrotation Yrotation Zrotation
											End Site
											{
												OFFSET	1	0	0
											}
										}
									}
								}
							}
						}
					}
					JOINT right_clavicle
					{
						OFFSET	43.2	22.4	-70.8
						CHANNELS 3  Xrotation Yrotation Zrotation
						JOINT right_shoulder
						{
							OFFSET	93.9	-5.79999	48.7
							CHANNELS 3  Xrotation Yrotation Zrotation
							JOINT right_elbow
							{
								OFFSET	291.4	-30.8	15.2
								CHANNELS 3  Xrotation Yrotation Zrotation
								JOINT right_lowarm_twist
								{
									OFFSET	110.7	-3.89999	13.6
									CHANNELS 3  Xrotation Yrotation Zrotation
									JOINT right_hand
									{
										OFFSET	110.7	-3.89999	13.6
										CHANNELS 3  Xrotation Yrotation Zrotation
										JOINT right_ee
										{
											OFFSET	80.8	-5.10001	12.1
											CHANNELS 3  Xrotation Yrotation Zrotation
											End Site
											{
												OFFSET	1	0	0
											}
										}
									}
								}
							}
						}
					}
				}
			}
		}
	}
	JOINT left_hip
	{
		OFFSET	-82.8	-127.5	0.300001
		CHANNELS 3  Xrotation Yrotation Zrotation
		JOINT left_knee
		{
			OFFSET	-28.2	-396.7	2.2
			CHANNELS 3  Xrotation Yrotation Zrotation
			JOINT left_ankle
			{
				OFFSET	-11.7	-411.3	35.4
				CHANNELS 3  Xrotation Yrotation Zrotation
				JOINT left_toes
				{
					OFFSET	0	-60	-88.6
					CHANNELS 3  Xrotation Yrotation Zrotation
					JOINT left_foot_ee
					{
						OFFSET	-22.5	-16.5	-42.2
						CHANNELS 3  Xrotation Yrotation Zrotation
						End Site
						{
							OFFSET	1	0	0
						}
					}
				}
			}
		}
	}
	JOINT right_hip
	{
		OFFSET	82.8	-127.5	0.300001
		CHANNELS 3  Xrotation Yrotation Zrotation
		JOINT right_knee
		{
			OFFSET	28.2	-396.7	2.2
			CHANNELS 3  Xrotation Yrotation Zrotation
			JOINT right_ankle
			{
				OFFSET	11.7	-411.3	35.4
				CHANNELS 3  Xrotation Yrotation Zrotation
				JOINT right_toes
				{
					OFFSET	0	-60	-88.6
					CHANNELS 3  Xrotation Yrotation Zrotation
					JOINT right_foot_ee
					{
						OFFSET	22.5	-16.5	-42.2
						CHANNELS 3  Xrotation Yrotation Zrotation
						End Site
						{
							OFFSET	1	0	0
						}
					}
				}
			}
		}
	}
}
MOTION
Frames: 11
Frame Time: 0.02
300.975 746.706 -661.968 178.504 -70.3178 168.698 -0.738237 0.964614 5.12366 -0.723864 0.637075 5.17447 -0.655319 -0.524608 5.18705 -0.692719 0.300029 5.20482 -12.8896 7.03658 3.60353 -12.9311 11.1186 5.52693 -0.0 0.0 -0.0 -4.39906 23.9042 -3.22034 11.4526 0.399323 72.282 1.06873 -27.8969 0.265451 32.0081 -6.58473e-05 -4.03612 -5.48588 29.1632 -18.4226 -0.0 0.0 -0.0 12.0192 26.7264 -23.3407 -4.36688 13.9763 -64.8295 1.12709 29.1749 -0.29333 3.44465 -0.108567 0.42652 -0.498106 4.75483 5.37794 0.0 0.0 0.0 -11.6406 27.2738 13.7939 1.96975 -0.0861105 -0.289974 21.9744 15.7155 -3.00747 -27.0976 0.0 0.0 -0.0 0.0 -0.0 13.3253 12.4326 9.59371 -35.4011 0.200401 -5.34381 36.4962 23.0573 5.15968 -17.731 0.0 0.0 0.0 0.0 0.0 
296.976 746.461 -662.414 178.455 -69.9419 168.468 -0.81689 0.939052 5.05905 -0.802868 0.615659 5.10837 -0.736967 -0.538206 5.11709 -0.773381 0.275597 5.13788 -12.8801 7.08956 3.77748 -12.9177 11.1092 5.70713 -0.0 0.0 -0.0 -4.39878 23.9265 -3.21457 12.3064 0.305868 72.4148 1.11904 -29.0005 0.289419 31.8722 0.00470493 -4.01941 -5.50743 29.1052 -18.5916 -0.0 0.0 -0.0 11.8823 26.568 -23.0476 -4.70774 13.7239 -65.0349 1.07989 28.1435 -0.27069 3.43246 -0.108228 0.425001 -0.493731 4.64643 5.30162 0.0 0.0 0.0 -11.4917 27.2975 13.7882 1.80911 -0.0787144 -0.266436 21.9685 15.4965 -3.00501 -27.1479 0.0 0.0 -0.0 0.0 -0.0 13.4268 12.7877 9.66367 -35.7086 0.216561 -5.38821 36.4446 22.7558 5.14002 -17.6895 0.0 0.0 0.0 0.0 0.0 
296.41 747.304 -663.754 178.885 -69.3203 168.872 -0.911154 0.912393 5.19531 -0.896332 0.580419 5.24265 -0.831375 -0.611386 5.23914 -0.869589 0.222524 5.26991 -12.6912 7.22474 3.96834 -12.7238 11.2262 5.91051 -0.0 0.0 -0.0 -4.15504 22.8737 -3.12619 13.0404 0.196542 72.5132 1.00489 -26.4632 0.236285 31.7301 0.0096485 -4.00194 -5.35774 28.8567 -17.9247 -0.0 0.0 -0.0 12.0927 26.9164 -23.4858 -5.1385 14.1772 -65.0983 1.10894 28.7807 -0.284535 3.96941 -0.122846 0.492032 -0.477481 3.45315 4.6776 0.0 0.0 0.0 -11.4075 27.3005 14.047 1.77603 -0.0771995 -0.261586 22.0361 15.8137 -3.01587 -27.2261 0.0 0.0 -0.0 0.0 -0.0 13.7943 13.0568 9.62705 -35.0897 0.184282 -5.29877 36.6722 22.4168 5.14686 -17.5914 0.0 0.0 0.0 0.0 0.0 
295.754 746.369 -664.782 178.855 -69.8948 168.602 -0.900772 0.977196 5.24802 -0.885686 0.641751 5.29937 -0.814126 -0.562536 5.30834 -0.853315 0.281648 5.33056 -12.9985 7.22752 4.21739 -13.0276 11.1084 6.17766 -0.0 0.0 -0.0 -4.19437 23.8224 -2.95876 14.1008 0.0592412 72.7234 1.20534 -30.8398 0.332468 31.5328 0.0164423 -3.97765 -5.57519 29.0177 -19.0509 -0.0 0.0 -0.0 12.0491 26.7654 -23.4043 -5.55564 13.2923 -66.1876 0.942417 25.0249 -0.209148 3.50323 -0.110191 0.433828 -0.487103 4.29075 5.10352 0.0 0.0 0.0 -11.286 27.1311 14.1514 1.60929 -0.0696069 -0.237128 22.0088 15.2588 -3.00811 -27.4027 0.0 0.0 -0.0 0.0 -0.0 13.968 13.4577 9.79068 -35.9192 0.227766 -5.41857 36.3952 21.9069 5.09557 -17.6085 0.0 0.0 0.0 0.0 0.0 
293.411 746.306 -665.828 179.941 -70.0084 169.615 -0.825265 0.974001 5.20817 -0.81041 0.641088 5.25939 -0.739846 -0.547342 5.26994 -0.778461 0.290615 5.29026 -13.0115 7.23718 4.40115 -13.0348 11.013 6.35611 -0.0 0.0 -0.0 -4.07674 23.6666 -2.8333 15.4984 -0.142628 72.7931 1.28777 -32.5332 0.37577 31.2487 0.0260752 -3.94265 -5.6238 28.9017 -19.4244 -0.0 0.0 -0.0 12.0102 27.2113 -23.2622 -5.97359 13.0402 -66.9126 0.849685 22.8265 -0.171534 3.57987 -0.112304 0.443389 -0.478282 4.06035 4.94463 0.0 0.0 0.0 -11.0416 27.389 14.3533 1.58727 -0.0686093 -0.233898 22.1905 15.1297 -3.02943 -27.5619 0.0 0.0 -0.0 0.0 -0.0 14.458 14.2413 9.86015 -36.0342 0.233932 -5.43513 36.4317 21.2652 5.07049 -17.4449 0.0 0.0 0.0 0.0 0.0 
292.876 746.099 -664.968 -179.84 -70.0635 169.698 -0.825422 1.02407 5.27236 -0.810227 0.686985 5.32663 -0.734248 -0.516917 5.34576 -0.773949 0.332583 5.36034 -12.9943 7.32819 4.72197 -13.0086 10.9832 6.68614 -0.0 0.0 -0.0 -4.1077 23.8587 -2.83132 16.963 -0.280803 72.763 1.36382 -34.0411 0.417515 30.8597 0.0389846 -3.89464 -5.7059 28.8407 -19.9508 -0.0 0.0 -0.0 11.9343 27.6609 -23.0344 -6.5221 12.7055 -67.8429 0.724537 19.7438 -0.126088 3.69038 -0.115329 0.457182 -0.45894 3.78157 4.69391 0.0 0.0 0.0 -11.0549 27.2715 14.4812 1.53146 -0.0660868 -0.225704 22.2173 14.9534 -3.03138 -27.8494 0.0 0.0 -0.0 0.0 -0.0 15.1351 15.1504 10.0031 -36.2797 0.247207 -5.47044 36.4951 20.2533 5.03337 -17.2724 0.0 0.0 0.0 0.0 0.0 
291.366 745.079 -665.793 -179.955 -69.6148 169.423 -0.934699 1.03885 5.327 -0.919191 0.698282 5.38209 -0.840745 -0.528321 5.40136 -0.881281 0.330065 5.41705 -13.0362 7.28724 4.78576 -13.0477 10.8702 6.73825 -0.0 0.0 -0.0 -3.99608 23.5793 -2.74223 17.6007 -0.339958 72.8148 1.37406 -34.2401 0.42326 30.7316 0.0431646 -3.87881 -5.70531 28.7129 -20.0502 -0.0 0.0 -0.0 12.0417 27.5651 -23.2906 -6.55474 12.5643 -68.0491 0.70642 19.287 -0.120035 3.75147 -0.116989 0.464809 -0.465504 3.72673 4.71461 0.0 0.0 0.0 -11.1435 27.3166 14.7362 1.43461 -0.0617291 -0.211484 22.3568 14.9447 -3.04837 -27.8409 0.0 0.0 -0.0 0.0 -0.0 15.2764 15.2727 9.88082 -36.4792 0.258102 -5.49909 36.2556 20.5161 5.0206 -17.2425 0.0 0.0 0.0 0.0 0.0 
292.349 745.141 -666.889 179.493 -68.997 169.151 -0.908398 1.00352 5.34371 -0.892764 0.661957 5.39652 -0.817713 -0.56495 5.40751 -0.858371 0.294856 5.42887 -12.9559 7.33202 4.92297 -12.9625 10.8595 6.87424 -0.0 0.0 -0.0 -3.90144 23.3095 -2.67262 18.624 -0.49283 72.9827 1.40089 -34.7572 0.438458 30.6976 0.0442677 -3.87461 -5.70415 28.7381 -20.0231 -0.0 0.0 -0.0 12.0358 27.2946 -23.3104 -6.8396 12.5057 -68.1922 0.709722 19.3704 -0.121128 3.77758 -0.117696 0.468069 -0.462941 3.76299 4.71293 0.0 0.0 0.0 -11.3476 27.4219 14.7354 1.57516 -0.0680611 -0.232119 22.2682 14.9828 -3.03782 -27.877 0.0 0.0 -0.0 0.0 -0.0 15.1413 15.265 9.48249 -36.8636 0.279381 -5.55419 35.7496 20.9792 4.98941 -17.2644 0.0 0.0 0.0 0.0 0.0 
297.723 742.387 -669.76 179.054 -67.4711 168.823 -0.900895 0.947688 5.26416 -0.885694 0.611281 5.3136 -0.81682 -0.595814 5.31536 -0.856136 0.249888 5.34273 -12.8201 7.29007 4.82659 -12.8273 10.8236 6.75749 -0.0 0.0 -0.0 -3.73375 22.394 -2.6418 19.1737 -0.900737 72.7078 1.37568 -34.2715 0.424174 30.7484 0.0426178 -3.88089 -5.64975 28.6987 -19.7372 -0.0 0.0 -0.0 11.9508 27.2606 -23.1209 -7.10159 12.4381 -67.7883 0.710268 19.3842 -0.121309 3.74284 -0.116755 0.463732 -0.45763 3.83941 4.70998 0.0 0.0 0.0 -12.2605 27.235 15.1377 1.52118 -0.0656232 -0.224196 22.2751 15.0701 -3.03932 -27.8522 0.0 0.0 -0.0 0.0 -0.0 15.2057 15.2985 9.47857 -36.8539 0.278842 -5.5528 35.7796 20.8449 4.98671 -17.2675 0.0 0.0 0.0 0.0 0.0 
299.84 741.607 -670.65 178.805 -66.8465 168.529 -0.861552 0.845153 5.11337 -0.847162 0.518507 5.15663 -0.789363 -0.648805 5.1419 -0.826198 0.170277 5.17977 -12.8039 7.34488 4.9071 -12.8094 10.8752 6.84873 -0.0 0.0 -0.0 -3.88173 22.642 -2.79533 19.2803 -1.01 73.2465 1.39245 -34.5951 0.433654 30.7547 0.0424141 -3.88167 -5.69056 28.8113 -19.885 -0.0 0.0 -0.0 11.8361 27.208 -22.8665 -7.94372 12.2382 -67.9034 0.700832 19.1456 -0.118196 3.7895 -0.118018 0.469557 -0.455901 3.85944 4.70692 0.0 0.0 0.0 -12.8753 26.935 15.42 1.80955 -0.078735 -0.266501 22.2892 15.0622 -3.04098 -27.8072 0.0 0.0 -0.0 0.0 -0.0 14.96 15.8058 9.4828 -36.874 0.279967 -5.55568 35.7737 21.0252 4.99384 -17.2739 0.0 0.0 0.0 0.0 0.0 
301.683 739.278 -669.861 178.398 -66.246 168.078 -0.935852 0.804998 5.05448 -0.921775 0.482164 5.09532 -0.867816 -0.67756 5.07309 -0.903688 0.131057 5.11635 -11.0943 7.47393 4.07482 -11.1069 11.4511 5.92985 -0.0 0.0 -0.0 -4.04206 22.3946 -3.07773 19.3871 -3.36052 73.5094 1.40801 -34.8934 0.442525 32.2878 -0.0100032 -4.07045 -4.98466 28.0151 -16.4142 -0.0 0.0 -0.0 11.9618 27.8383 -23.0747 -8.69391 12.0708 -67.9419 0.606247 16.716 -0.0890697 4.06215 -0.125307 0.503622 0.014759 8.39161 3.46523 0.0 0.0 0.0 -13.5835 26.7712 15.7285 2.01969 -0.0884239 -0.297288 23.681 17.2634 -3.23003 -26.8238 0.0 0.0 -0.0 0.0 -0.0 14.759 18.4838 8.97383 -38.2525 0.359349 -5.75208 38.5403 19.6699 5.2059 -18.7547 0.0 0.0 0.0 0.0 0.0 
